<svg width="348" height="353" xmlns="http://www.w3.org/2000/svg" xmlns:xlink="http://www.w3.org/1999/xlink" xml:space="preserve" overflow="hidden"><defs><clipPath id="clip0"><rect x="841" y="554" width="32" height="33"/></clipPath></defs><g transform="translate(-612 -344)"><g><g><path d="M0 0 345.907 0 345.907 345.907 0 345.907Z" fill="#FFFFFF" fill-rule="nonzero" fill-opacity="1" transform="matrix(1 0 0 1.01437 612 344)"/><path d="M0 0 345.907 0 345.907 345.907 0 345.907Z" fill="#FFFFFF" fill-rule="nonzero" fill-opacity="1" transform="matrix(1 0 0 1.01437 612 344)"/></g><g><path d="M7.11818 0 7.11818-1.84545C9.26022-2.50455 10.7432-3.88864 11.5341-5.99775 12.325-8.13978 12.7204-12.0778 12.7204-17.7955L12.7204-80.2771C12.7204-86.0771 12.325-90.032 11.5341-92.1411 10.7432-94.2502 9.26022-95.6342 7.11818-96.2931L7.11818-98.0727 29.8568-98.0727 29.8568-96.2931C27.6983-95.6342 26.2318-94.2502 25.4409-92.1411 24.65-90.032 24.2545-86.0771 24.2545-80.2771L24.2545-8.56818C24.2545-4.35 26.3307-2.24091 30.5159-2.24091L47.1909-2.24091C53.9467-2.24091 59.1203-3.22955 62.6796-5.20684 66.2714-7.21706 69.3035-10.842 71.7749-16.0818L73.2909-15.8182 72.3022 0Z" fill="#D4AF37" fill-rule="nonzero" fill-opacity="1" transform="matrix(1 0 0 1.01437 683.8 558.939)"/><path d="M6.98636 0 6.98636-1.84545C9.1284-2.50455 10.6113-3.88864 11.4023-5.99775 12.1932-8.13978 12.5887-12.0778 12.5887-17.7955L12.5887-74.6749C12.5887-79.9805 12.2591-84.1164 11.6-87.0658 10.9739-89.9987 10.0347-92.1411 8.76589-93.4589 7.48069-94.7775 5.93182-95.7164 4.08636-96.2931L4.08636-98.0727 21.025-98.0727 57.6043-37.7 93.4589-98.0727 109.277-98.0727 109.277-96.2931C107.432-95.7164 105.867-94.7775 104.598-93.4589 103.313-92.1411 102.357-89.9987 101.698-87.0658 101.071-84.1164 100.775-79.9805 100.775-74.6749L100.775-17.7955C100.775-12.0778 101.171-8.13978 101.961-5.99775 102.752-3.88864 104.219-2.50455 106.377-1.84545L106.377 0 83.6385 0 83.6385-1.84545C85.7805-2.50455 87.2636-3.88864 88.0545-5.99775 88.8455-8.13978 89.2407-12.0778 89.2407-17.7955L89.2407-86.7364 53.6502-26.6273 51.0138-26.6273 15.1591-85.616 15.1591-23.3977C15.1591-18.0756 15.5216-13.9727 16.2796-11.0727 17.021-8.17273 18.0756-6.03069 19.4432-4.67957 20.8438-3.31193 22.5739-2.37273 24.65-1.84545L24.65 0Z" fill="#D4AF37" fill-rule="nonzero" fill-opacity="1" transform="matrix(1 0 0 1.01437 759.899 558.939)"/></g><g><g><path d="M62.3498 6.26138C62.3498 6.26138 62.3667 6.26138 62.416 6.26138 62.5805 6.26138 62.7455 6.27784 62.8771 6.32727 63.042 6.36022 63.174 6.47558 63.2727 6.6568 63.3056 6.6568 63.3385 6.68978 63.3385 6.78866 63.3714 6.87104 63.4043 6.93693 63.4043 6.98636 63.355 7.06874 63.3056 7.13467 63.2727 7.18407 63.2234 7.26649 63.174 7.31593 63.1411 7.31593 62.8277 7.34887 62.5476 7.34887 62.284 7.31593 55.1987 5.81649 47.3887 4.84433 38.8204 4.41593 30.2523 4.02045 22.3597 4.18523 15.1591 4.9432 14.7966 4.9432 14.4671 4.95965 14.1705 5.00909 13.9068 5.04203 13.6432 5.07498 13.3796 5.07498 12.5887 5.20684 11.8966 5.56931 11.3364 6.19545 10.0182 7.59602 8.58467 8.83182 7.05229 9.88636 5.81649 10.7102 4.44887 11.1716 2.96591 11.2705 2.3892 11.3034 1.8125 11.221 1.25227 11.0068 0.725 10.7761 0.3625 10.4301 0.197727 9.95229 0.0659091 9.5074 0.131818 9.02952 0.395455 8.50225 0.873294 7.74433 1.64773 7.11818 2.70227 6.59091 3.75682 6.06364 4.87727 5.61874 6.06364 5.27273 7.28294 4.95965 8.32104 4.71251 9.16138 4.54771 10.2489 4.31706 11.1551 3.77329 11.8636 2.9 15.192-1.13693 18.4051-5.73411 21.4864-10.875 24.6006-16.0159 27.4511-21.3051 30.0545-26.7591 32.6415-32.1966 34.8824-37.4364 36.7773-42.4455 36.8102-42.7091 36.9091-42.9234 37.0409-43.1048 37.2057-43.3186 37.4529-43.4506 37.7659-43.5 38.0295-43.5329 38.2602-43.4671 38.4909-43.3022 38.7051-43.1706 38.7875-42.9727 38.7545-42.7091 38.6557-42.05 38.4909-41.4074 38.2273-40.7977 36.4642-36.0523 34.3551-31.1091 31.9-25.9682 29.4284-20.8602 26.7591-15.8841 23.8591-11.0068 20.9591-6.16251 17.9602-1.77955 14.8955 2.175 14.2364 2.99887 14.0386 3.49318 14.3023 3.625 14.5659 3.75682 15.0438 3.72386 15.7523 3.55909 15.9171 3.55909 16.0983 3.52614 16.2796 3.49318 22.0301 2.83409 28.0113 2.63636 34.2068 2.9 40.4023 3.16364 46.4987 3.70739 52.5294 4.54771 54.6714 4.84433 56.7641 5.20684 58.7909 5.60225 59.9775 5.81649 61.1636 6.03069 62.3498 6.26138ZM3.82273 9.82043C5.56931 9.11195 7.05229 7.97498 8.23862 6.39316 6.29433 6.55796 4.61364 7.15113 3.16364 8.17273 2.66932 8.51874 2.3892 8.84831 2.30682 9.16138 2.25739 9.5074 2.37273 9.75455 2.63636 9.88636 2.9 10.0511 3.29545 10.0347 3.82273 9.82043Z" fill="#9F9797" fill-rule="nonzero" fill-opacity="1" transform="matrix(1 0 0 1.01437 665.846 528.927)"/></g><path d="M0.395455-2.76818C-0.609658-2.76818-1.12045-3.29545-1.12045-4.35-1.12045-5.61874-0.280113-7.85965 1.38409-11.0727 1.41705-11.2045 1.53239-11.2705 1.71364-11.2705 2.37273-11.2705 2.70227-11.0068 2.70227-10.4796 2.70227-10.2983 2.63636-10.0841 2.50455-9.82043 2.45511-9.7216 1.91136-8.32104 0.856818-5.60225 0.725-5.1574 0.659091-4.84433 0.659091-4.67957 0.659091-4.41593 0.741476-4.28407 0.922727-4.28407 1.71364-4.28407 3.72386-6.19545 6.98636-10.0182 7.38182-10.5455 7.79377-10.8091 8.23862-10.8091 8.79887-10.8091 9.09545-10.5784 9.09545-10.15 9.09545-9.96874 8.9142-9.32615 8.56818-8.23862 8.04091-6.73922 7.77727-5.86589 7.77727-5.60225 7.77727-5.28922 7.90909-5.14091 8.17273-5.14091 8.73294-5.14091 10.4136-6.14602 13.1818-8.17273 13.3466-8.33749 13.5113-8.43636 13.6432-8.43636 13.9068-8.43636 14.0386-8.18922 14.0386-7.71134 14.0386-7.61251 13.9892-7.53013 13.9068-7.44771 12.4074-6.16251 11.1551-5.20684 10.15-4.54771 9.17784-3.92159 8.32104-3.625 7.57957-3.625L7.38182-3.625C6.27784-3.88864 5.73411-4.74545 5.73411-6.19545 4.58069-5.17385 3.64148-4.35 2.9-3.69091 2.14204-3.06477 1.31818-2.76818 0.395455-2.76818Z" fill="#9F9797" fill-rule="nonzero" fill-opacity="1" transform="matrix(1 0 0 1.01437 694.296 528.927)"/><path d="M11.3364-8.17273C11.3693-8.17273 11.4187-8.13978 11.4682-8.10684 11.5506-8.10684 11.6165-8.07385 11.6659-8.04091 11.8307-7.90909 11.8636-7.74433 11.7318-7.57957 11.6-7.39831 11.4682-7.26649 11.3364-7.18407 10.496-6.42615 9.58978-5.8 8.63411-5.27273 7.08524-4.48182 5.3716-4.08636 3.49318-4.08636 2.78466-4.03693 2.07614-4.15227 1.38409-4.41593 0.0164773-4.9432-0.527273-5.89887-0.263636-7.31593 0.0329545-8.63411 0.757957-9.7216 1.91136-10.6113 3.09773-11.4847 4.36649-11.8636 5.73411-11.7318 5.94831-11.6824 6.19545-11.6165 6.45909-11.5341 6.67329-11.4352 6.85455-11.3034 6.98636-11.1386 7.11818-10.9574 7.11818-10.8091 6.98636-10.6773 6.75567-10.4136 6.47558-10.3477 6.12952-10.4796 5.63524-10.6938 5.20684-10.7432 4.81134-10.6113 4.41593-10.5125 4.02045-10.3148 3.625-10.0182 3.22955-9.70511 2.78466-9.24377 2.30682-8.63411 1.86193-8.0574 1.58182-7.48069 1.45-6.92043 1.31818-6.34377 1.58182-5.86589 2.24091-5.47048 2.93295-5.1574 3.69091-5.09147 4.48182-5.27273 6.36022-5.66818 8.13978-6.39316 9.82043-7.44771 9.95229-7.48069 10.0511-7.57957 10.15-7.71134 10.3642-7.8432 10.5619-7.94203 10.7432-8.04091 10.908-8.12329 11.1057-8.17273 11.3364-8.17273Z" fill="#9F9797" fill-rule="nonzero" fill-opacity="1" transform="matrix(1 0 0 1.01437 706.573 528.927)"/><path d="M6.26138-6.59091C5.68467-5.93182 5.00909-5.30567 4.21818-4.74545 3.46023-4.21818 2.60341-3.8392 1.64773-3.625 0.675567-3.44375-0.0659091-3.52614-0.593182-3.88864-1.12045-4.23467-1.21932-4.97615-0.922727-6.12952-0.47784-7.31593 0.0988636-8.45286 0.856818-9.5568 0.988636-9.77104 1.21932-9.91931 1.58182-10.0182 1.79602-10.0511 1.99375-10.0182 2.175-9.88636 2.33977-9.75455 2.40568-9.58978 2.37273-9.42502 2.19148-9.02952 2.01023-8.63411 1.84545-8.23862 1.6642-7.87615 1.53239-7.64545 1.45-7.51364 1.0875-6.85455 0.856818-6.14602 0.725-5.40455 0.725-5.00909 1.26875-4.97615 2.37273-5.33861 3.50966-5.73411 4.61364-6.40965 5.66818-7.38182 6.72273-8.33749 7.21706-8.63411 7.18407-8.23862 7.13467-7.8432 6.8216-7.28294 6.26138-6.59091ZM3.49318-11.9295C3.44375-11.8801 3.32841-11.8142 3.16364-11.7318 3.03182-11.6824 2.85057-11.6329 2.63636-11.6 2.45511-11.6 2.32329-11.6329 2.24091-11.7318 2.14204-11.8142 2.14204-11.9625 2.24091-12.1932 2.37273-12.6216 2.52102-13.0006 2.70227-13.3136 2.91648-13.6597 3.18011-14.0386 3.49318-14.4341 3.65796-14.5989 3.85568-14.6977 4.08636-14.6977 4.30056-14.7307 4.48182-14.6977 4.61364-14.5659 4.7784-14.4341 4.82784-14.2529 4.74545-14.0386 4.51476-13.1983 4.10284-12.4898 3.49318-11.9295Z" fill="#9F9797" fill-rule="nonzero" fill-opacity="1" transform="matrix(1 0 0 1.01437 716.413 528.927)"/><path d="M12.4568-7.8432C12.6216-7.61251 12.4074-7.21706 11.7977-6.6568 11.221-6.12952 10.6113-5.66818 9.95229-5.27273 9.29316-4.91022 8.51874-4.54771 7.64545-4.15227 7.06874-3.92159 6.45909-3.8392 5.8-3.88864 5.17385-3.97102 4.87727-4.36649 4.87727-5.07498 4.87727-5.76706 5.02558-6.47558 5.33861-7.18407 5.63524-7.87615 5.70113-8.23862 5.53636-8.23862 5.35511-8.2716 4.97615-8.12329 4.41593-7.77727 2.91648-6.80511 1.51591-5.68467 0.197727-4.41593-0.148295-3.97102-0.593182-3.72386-1.12045-3.69091-1.38409-3.69091-1.58182-3.77329-1.71364-3.95455-1.87841-4.11932-1.91136-4.31706-1.77955-4.54771-0.856818-6.21195 0.0659091-7.87615 0.988636-9.5568 1.20284-9.90286 1.53239-10.1171 1.97727-10.2159 2.14204-10.2489 2.30682-10.1829 2.43864-10.0182 2.60341-9.88636 2.70227-9.7216 2.70227-9.5568 2.65284-9.42502 2.57045-9.22727 2.43864-8.96364 2.3892-8.83182 2.33977-8.7 2.30682-8.56818 2.25739-8.46931 2.24091-8.38693 2.24091-8.30455 2.27386-8.20567 2.33977-8.17273 2.43864-8.17273 2.60341-8.25511 2.78466-8.33749 2.96591-8.43636 3.36136-8.7 3.72386-8.9142 4.08636-9.09545 4.38294-9.30965 4.71251-9.49091 5.07498-9.62273 5.47048-9.75455 5.86589-9.85342 6.26138-9.95229 6.87104-9.98524 7.31593-9.83693 7.57957-9.49091 7.8432-9.17784 7.85965-8.73294 7.64545-8.17273 7.4642-7.64545 7.25-7.11818 6.98636-6.59091 6.72273-6.09658 6.67329-5.73411 6.85455-5.47048 7.01931-5.23978 7.90909-5.53636 9.49091-6.32727L10.6773-7.05229C11.7648-7.74433 12.358-8.00797 12.4568-7.8432Z" fill="#9F9797" fill-rule="nonzero" fill-opacity="1" transform="matrix(1 0 0 1.01437 721.899 528.927)"/><path d="M13.9727-8.23862C14.1869-8.18922 14.3023-8.12329 14.3023-8.04091 14.3352-7.94203 14.3682-7.90909 14.3682-7.90909 14.1045-7.4642 13.7915-7.05229 13.4455-6.6568 12.6875-5.81649 11.8307-5.1574 10.875-4.67957 10.3807-4.41593 9.83693-4.25113 9.22727-4.21818 7.81022-4.21818 7.18407-4.91022 7.31593-6.32727 7.34887-6.59091 7.41476-6.87104 7.51364-7.18407 7.54658-7.31593 7.59602-7.44771 7.64545-7.57957 7.77727-8.0574 7.79377-8.32104 7.71134-8.37047 7.66195-8.45286 7.51364-8.32104 7.25-7.97498 7.15113-7.92558 7.08524-7.85965 7.05229-7.77727 6.6074-7.25 6.16251-6.75567 5.73411-6.32727 4.9432-5.35511 4.02045-4.5642 2.96591-3.95455 2.33977-3.59204 1.68068-3.39432 0.988636-3.36136-0.148295-3.31193-0.790909-3.8392-0.922727-4.9432-0.95568-5.3716-0.939203-5.81649-0.856818-6.26138-0.3625-8.00797 0.543749-9.35909 1.91136-10.2818 3.31193-11.2375 4.89377-11.6 6.6568-11.3364 7.18407-11.1551 7.54658-11.2869 7.77727-11.7318 7.85965-11.8636 7.94203-12.0119 8.04091-12.1932 8.51874-13.0171 8.99658-13.8574 9.49091-14.6977 10.3642-16.2796 11.2375-17.8778 12.1273-19.5091 12.8193-20.7778 13.5278-22.0466 14.2364-23.3318 14.4506-23.7273 14.6977-24.1227 14.9614-24.5182 15.0438-24.6829 15.1756-24.7818 15.3568-24.7818 15.5216-24.8148 15.7193-24.8477 15.95-24.8477 15.9829-24.8477 16.0324-24.8477 16.0818-24.8477 16.296-24.8477 16.4443-24.7983 16.5432-24.7159 16.675-24.6171 16.708-24.4852 16.675-24.3204 16.5432-23.8756 16.3619-23.4636 16.1477-23.0682 15.1756-21.1239 14.2529-19.1796 13.3796-17.2023 12.5392-15.225 11.6989-13.2148 10.875-11.2045 10.6113-10.496 10.3477-9.78749 10.0841-9.09545 9.7216-8.30455 9.44147-7.48069 9.22727-6.6568 9.1284-6.42615 9.09545-6.2284 9.09545-6.06364 9.09545-5.88238 9.17784-5.73411 9.35909-5.60225 9.49091-5.50342 9.62273-5.48693 9.75455-5.53636 9.88636-5.56931 10.0182-5.63524 10.15-5.73411 10.15-5.76706 10.1665-5.8 10.2159-5.8 11.221-6.36022 12.1438-7.06874 12.9841-7.90909 13.1159-8.04091 13.2477-8.13978 13.3796-8.23862 13.5443-8.32104 13.742-8.32104 13.9727-8.23862ZM6.19545-9.29316C6.32727-9.45796 6.36022-9.63922 6.32727-9.82043 6.27784-9.98524 6.14602-10.1171 5.93182-10.2159 5.53636-10.4301 5.10796-10.4466 4.67957-10.2818 3.625-9.96874 2.71875-9.35909 1.97727-8.43636 1.26875-7.51364 0.873294-6.49203 0.790909-5.40455 0.823861-5.35511 0.856818-5.33861 0.856818-5.33861 0.856818-5.23978 0.856818-5.14091 0.856818-5.00909 0.939203-4.51476 1.25227-4.43238 1.77955-4.74545 2.30682-5.04203 2.9-5.55286 3.55909-6.26138 4.21818-6.95342 4.7784-7.61251 5.27273-8.23862 5.8-8.84831 6.09658-9.19433 6.19545-9.29316Z" fill="#9F9797" fill-rule="nonzero" fill-opacity="1" transform="matrix(1 0 0 1.01437 732.776 528.927)"/><path d="M11.4023-7.97498C11.6659-7.8432 11.6824-7.51364 11.4682-6.98636 11.1551-6.59091 10.8256-6.21195 10.4796-5.86589 10.1171-5.50342 9.75455-5.20684 9.35909-4.9432 9.30965-4.9432 9.29316-4.91022 9.29316-4.87727 9.02952-4.69602 8.73294-4.54771 8.43636-4.41593 5.93182-3.52614 4.64658-4.05341 4.61364-5.99775 3.59204-5.10796 2.91648-4.58069 2.57045-4.41593 1.73011-3.88864 0.823861-3.65796-0.131818-3.75682-0.823861-3.78977-1.31818-3.9875-1.58182-4.35-1.84545-4.74545-1.8125-5.28922-1.51591-5.99775-1.02159-7.05229-0.3625-7.99147 0.461364-8.83182 1.46648-9.75455 2.57045-10.4796 3.75682-11.0068 4.41593-11.3529 5.09147-11.4847 5.8-11.4023 6.54147-11.3529 6.98636-10.9574 7.11818-10.2159 7.15113-9.95229 7.08524-9.7216 6.92043-9.5568 6.68978-9.37558 6.42615-9.32615 6.12952-9.42502 6.12952-9.42502 6.09658-9.42502 6.06364-9.42502 6.0142-9.45796 5.96476-9.49091 5.93182-9.49091 5.66818-9.91931 5.35511-10.1006 5.00909-10.0182 4.69602-9.96874 4.38294-9.83693 4.08636-9.62273 2.45511-8.65056 1.25227-7.33238 0.461364-5.66818 0.411932-5.56931 0.3625-5.48693 0.329545-5.40455 0.329545-5.30567 0.3625-5.23978 0.461364-5.20684 0.626138-5.1574 0.823861-5.17385 1.05455-5.27273 1.31818-5.35511 1.54887-5.48693 1.77955-5.66818 1.99375-5.83294 2.19148-5.96476 2.37273-6.06364 2.37273-6.09658 2.37273-6.12952 2.37273-6.12952 3.16364-6.73922 3.90511-7.39831 4.61364-8.10684 4.95965-8.45286 5.3716-8.65056 5.86589-8.7 6.55796-8.7 6.85455-8.37047 6.72273-7.71134 6.67329-7.48069 6.6074-7.26649 6.52502-7.05229 6.26138-6.03069 6.2284-5.43749 6.45909-5.27273 6.72273-5.09147 7.11818-5.09147 7.64545-5.27273 8.17273-5.43749 8.66706-5.76706 9.16138-6.26138 9.68866-6.73922 10.1171-7.18407 10.4796-7.57957 10.875-8.00797 11.1716-8.13978 11.4023-7.97498Z" fill="#9F9797" fill-rule="nonzero" fill-opacity="1" transform="matrix(1 0 0 1.01437 745.273 528.927)"/><path d="M69.0727-37.9636C68.974-37.7824 68.9078-37.6011 68.8749-37.4364 68.1169-35.492 67.326-33.6136 66.5022-31.7682 62.103-22.6727 57.374-13.8574 52.3316-5.33861 50.7004-2.57045 49.0364 0.131818 47.3229 2.76818 45.6091 5.43749 43.8952 8.10684 42.1818 10.7432 41.7369 11.3529 41.325 11.9625 40.9295 12.5887 40.8801 12.6216 40.8636 12.6545 40.8636 12.6545 40.7648 12.8687 40.6659 13.0171 40.5341 13.1159 40.4023 13.2477 40.221 13.3136 40.0068 13.3136 39.908 13.3136 39.8091 13.2807 39.6773 13.2477 39.5784 13.1983 39.5125 13.1489 39.4796 13.1159 39.4301 13.0171 39.3807 12.9182 39.3477 12.7864 39.3477 12.6545 39.3642 12.5392 39.4136 12.4568 39.6773 11.8307 39.9739 11.2705 40.3364 10.7432 41.1273 9.45796 41.9182 8.18922 42.7091 6.92043 44.1593 4.54771 45.6091 2.175 47.0589-0.197727 50.2225-5.47048 53.2216-10.842 56.0887-16.3455 58.9887-21.8818 61.8225-27.4511 64.5909-33.0864 65.6784-35.2284 66.5848-37.5682 67.2931-40.0727 67.4251-40.4682 67.5238-40.8801 67.6225-41.325 67.7052-41.8029 67.7545-42.3134 67.7545-42.8407 67.6558-43.8952 67.1944-44.3567 66.3706-44.2251 65.6619-44.0437 64.9862-43.7965 64.3273-43.5 62.7784-42.742 61.2623-41.9347 59.7796-41.0614 51.6892-36.1347 44.3567-30.0545 37.7659-22.8045 37.6341-22.7057 37.5187-22.6068 37.4364-22.475 35.146-20.0034 32.8557-17.4989 30.5818-14.9614 28.3409-12.4568 26.1659-9.85342 24.0568-7.18407 23.6119-6.6074 23.1506-6.08013 22.6727-5.60225 22.1455-5.07498 21.5193-4.84433 20.8273-4.9432 20.5142-4.97615 20.2506-5.14091 20.0364-5.40455 19.8551-5.66818 19.7892-5.96476 19.8386-6.32727 20.0034-7.25 20.2341-8.17273 20.4977-9.09545 21.3216-11.8636 22.2278-14.5989 23.2-17.3341 23.3318-17.7295 23.4636-18.125 23.5955-18.5204 23.8097-19.5256 24.1557-20.4648 24.65-21.3545 24.65-21.3545 24.6171-21.3545 24.5841-21.3545 24.4852-21.4369 24.3864-21.5029 24.2545-21.5523 24.1557-21.5852 24.0568-21.5523 23.925-21.4204 23.4801-20.9261 23.0847-20.4483 22.7386-19.9705 19.5256-15.6534 16.3619-11.3034 13.2477-6.92043 10.1171-2.52102 7.06874 1.94432 4.08636 6.52502 3.82273 6.95342 3.52614 7.31593 3.22955 7.57957 2.91648 7.87615 2.50455 7.97498 1.97727 7.8432 1.74659 7.79377 1.58182 7.66195 1.45 7.44771 1.31818 7.21706 1.28523 7.00286 1.38409 6.78866 1.64773 6.16251 1.94432 5.56931 2.30682 5.00909 3.22955 3.42727 4.11932 1.84545 5.00909 0.263636 6.80511-2.9 8.60113-6.08013 10.4136-9.29316 13.1818-14.1705 15.6534-19.3113 17.8614-24.7159 18.6852-26.7756 19.3773-28.9506 19.9045-31.2409 20.2011-32.4602 20.3329-33.7455 20.3-35.0636 20.1682-37.1727 19.4597-38.6887 18.1909-39.6113 16.9057-40.5341 15.2415-40.9625 13.1818-40.9295 11.1057-40.8801 8.79887-40.4352 6.26138-39.6113 3.75682-38.8204 1.18636-37.7659-1.45-36.4477-4.08636-35.1625-6.62385-33.7455-9.09545-32.1636-11.5506-30.5818-13.7256-28.9506-15.6204-27.2864-17.5483-25.6551-19.0477-24.1392-20.1023-22.7386-21.2392-21.1568-22.2113-19.4102-23.0023-17.5318-23.3977-16.642-23.6119-15.6864-23.6614-14.6318-23.6943-14.4011-23.8097-14.2364-23.9909-14.1045-24.1557-14.0057-24.3864-13.9892-24.65-14.0386-24.996-14.1705-25.2102-14.4506-25.3091-14.8955-25.3915-15.5051-25.342-16.0489-25.1773-16.5432-24.8148-17.8119-24.3534-19.0148-23.7932-20.1682-22.7386-22.1455-21.1239-24.1557-18.9818-26.2318-16.8233-28.2915-14.3023-30.2687-11.4023-32.1636-8.53524-34.0915-5.53636-35.7887-2.37273-37.2386 0.741476-38.7216 3.78977-39.8915 6.78866-40.7318 9.77104-41.5557 12.4568-41.9347 14.8295-41.8523 17.2352-41.7534 19.1301-41.0943 20.4977-39.875 21.8983-38.6392 22.5739-36.6784 22.5409-34.0091 22.442-32.2955 22.1784-30.6642 21.75-29.1318 21.0415-26.8909 20.2506-24.6829 19.3773-22.5409 18.5369-20.4318 17.6142-18.3557 16.6091-16.3455 16.296-15.7193 16.2301-15.4227 16.4113-15.4227 16.5761-15.4557 16.8398-15.7029 17.2023-16.1477 18.4216-17.8119 19.6739-19.4597 20.9591-21.0909 21.7829-22.1455 22.6398-23.2 23.5295-24.2545 23.6614-24.3864 23.7602-24.5182 23.8591-24.65 24.3864-25.2597 24.996-25.6716 25.7045-25.9023 26.2318-26.0341 26.6602-25.9187 27.0227-25.5727 27.4182-25.2102 27.55-24.6665 27.4182-23.925 27.4182-23.8756 27.3852-23.8097 27.3523-23.7273 27.171-22.8045 26.9568-21.8983 26.6932-21.025 26.0341-18.9159 25.342-16.8068 24.65-14.6977 24.2875-13.5938 23.9415-12.4898 23.5955-11.4023 23.4966-11.2705 23.3977-10.9739 23.2659-10.5455 23.1341-10.1829 23.0023-9.82043 22.8705-9.42502 22.7716-9.06251 22.6892-8.79887 22.6068-8.63411 22.6892-8.71649 23.546-9.68866 25.1773-11.5341 27.3687-14.0386 29.9557-16.9716 32.9545-20.3659 35.9369-23.7438 38.2932-26.3142 40.0068-28.0773 43.1706-31.2739 46.4823-34.1739 49.9593-36.7773 53.4688-39.3642 57.1104-41.7204 60.9-43.8294 61.8225-44.3074 62.7619-44.7524 63.7342-45.1476 63.9485-45.2303 64.1459-45.3125 64.3273-45.4113 65.2502-45.7576 66.2385-45.8892 67.2931-45.8069 69.2706-45.6255 70.1931-44.3732 70.0615-42.05 69.9294-40.6 69.6-39.2324 69.0727-37.9636ZM24.5182-21.4864C24.5511-21.4369 24.6006-21.3875 24.65-21.3545 24.6006-21.3875 24.5511-21.4369 24.5182-21.4864Z" fill="#9F9797" fill-rule="nonzero" fill-opacity="1" transform="matrix(1 0 0 1.01437 766.289 528.927)"/><path d="M11.4023-7.97498C11.6659-7.8432 11.6824-7.51364 11.4682-6.98636 11.1551-6.59091 10.8256-6.21195 10.4796-5.86589 10.1171-5.50342 9.75455-5.20684 9.35909-4.9432 9.30965-4.9432 9.29316-4.91022 9.29316-4.87727 9.02952-4.69602 8.73294-4.54771 8.43636-4.41593 5.93182-3.52614 4.64658-4.05341 4.61364-5.99775 3.59204-5.10796 2.91648-4.58069 2.57045-4.41593 1.73011-3.88864 0.823861-3.65796-0.131818-3.75682-0.823861-3.78977-1.31818-3.9875-1.58182-4.35-1.84545-4.74545-1.8125-5.28922-1.51591-5.99775-1.02159-7.05229-0.3625-7.99147 0.461364-8.83182 1.46648-9.75455 2.57045-10.4796 3.75682-11.0068 4.41593-11.3529 5.09147-11.4847 5.8-11.4023 6.54147-11.3529 6.98636-10.9574 7.11818-10.2159 7.15113-9.95229 7.08524-9.7216 6.92043-9.5568 6.68978-9.37558 6.42615-9.32615 6.12952-9.42502 6.12952-9.42502 6.09658-9.42502 6.06364-9.42502 6.0142-9.45796 5.96476-9.49091 5.93182-9.49091 5.66818-9.91931 5.35511-10.1006 5.00909-10.0182 4.69602-9.96874 4.38294-9.83693 4.08636-9.62273 2.45511-8.65056 1.25227-7.33238 0.461364-5.66818 0.411932-5.56931 0.3625-5.48693 0.329545-5.40455 0.329545-5.30567 0.3625-5.23978 0.461364-5.20684 0.626138-5.1574 0.823861-5.17385 1.05455-5.27273 1.31818-5.35511 1.54887-5.48693 1.77955-5.66818 1.99375-5.83294 2.19148-5.96476 2.37273-6.06364 2.37273-6.09658 2.37273-6.12952 2.37273-6.12952 3.16364-6.73922 3.90511-7.39831 4.61364-8.10684 4.95965-8.45286 5.3716-8.65056 5.86589-8.7 6.55796-8.7 6.85455-8.37047 6.72273-7.71134 6.67329-7.48069 6.6074-7.26649 6.52502-7.05229 6.26138-6.03069 6.2284-5.43749 6.45909-5.27273 6.72273-5.09147 7.11818-5.09147 7.64545-5.27273 8.17273-5.43749 8.66706-5.76706 9.16138-6.26138 9.68866-6.73922 10.1171-7.18407 10.4796-7.57957 10.875-8.00797 11.1716-8.13978 11.4023-7.97498Z" fill="#9F9797" fill-rule="nonzero" fill-opacity="1" transform="matrix(1 0 0 1.01437 824.887 528.927)"/><path d="M7.51364-9.62273C7.41476-8.9142 7.08524-8.45286 6.52502-8.23862 5.94831-8.00797 5.75056-8.30455 5.93182-9.09545 6.14602-9.88636 5.8-10.0841 4.87727-9.68866 3.95455-9.29316 3.18011-8.79887 2.57045-8.23862 1.64773-7.26649 0.823861-6.26138 0.131818-5.20684 0.0329545-5.07498 0-4.97615 0-4.9432-0.214204-4.63013-0.428407-4.35-0.659091-4.08636-0.790909-3.90511-0.939203-3.77329-1.12045-3.69091-1.28523-3.64148-1.48295-3.64148-1.71364-3.69091-1.87841-3.72386-2.01023-3.78977-2.10909-3.88864-2.19148-4.02045-2.19148-4.15227-2.10909-4.28407-2.01023-4.58069-1.87841-4.89377-1.71364-5.20684-0.790909-6.92043 0.148295-8.66706 1.12045-10.4796 1.15341-10.4796 1.18636-10.4796 1.18636-10.4796 1.31818-10.7761 1.46648-11.0398 1.64773-11.2705 1.86193-11.4847 2.10909-11.5671 2.37273-11.5341 2.66932-11.4847 2.86705-11.3364 2.96591-11.0727 3.04829-10.6773 3.13068-10.4466 3.22955-10.4136 3.31193-10.3642 3.50966-10.4136 3.82273-10.5455 4.43238-10.7597 5.02558-10.908 5.60225-11.0068 6.21195-11.1386 6.72273-11.1057 7.11818-10.9409 7.51364-10.8091 7.64545-10.3642 7.51364-9.62273Z" fill="#9F9797" fill-rule="nonzero" fill-opacity="1" transform="matrix(1 0 0 1.01437 834.664 528.927)"/><path d="M9.82043-7.57957C8.40342-5.94831 7.01931-4.74545 5.66818-3.95455 4.35-3.16364 2.91648-2.9 1.38409-3.16364-0.148295-3.42727-0.790909-4.44887-0.527273-6.26138-0.346022-7.13467-0.0823862-8.00797 0.263636-8.89775 1.05455-10.908 1.86193-12.9182 2.70227-14.8955 2.96591-15.5875 3.24602-16.296 3.55909-17.0045 3.64148-17.1693 3.70739-17.3506 3.75682-17.5318 3.88864-17.746 4.02045-18.0097 4.15227-18.3227 4.28407-18.7511 4.08636-18.9983 3.55909-19.0477 3.24602-19.0477 2.96591-19.0477 2.70227-19.0477 2.52102-19.0477 2.37273-19.0477 2.24091-19.0477 2.05966-18.9983 1.87841-18.9818 1.71364-18.9818 1.45-18.9324 1.18636-18.9159 0.922727-18.9159 0.659091-18.9159 0.411932-18.9818 0.197727-19.1136 0.0988636-19.1466 0.0329545-19.196 0-19.2455 0-19.2784 0-19.3443 0-19.4432 0-19.4761 0.0164773-19.5256 0.0659091-19.575 0.0988636-19.6574 0.164773-19.7068 0.263636-19.7068 0.47784-19.7892 0.725-19.8551 0.988636-19.9045 1.64773-19.9375 2.27386-19.9705 2.9-19.9705 3.16364-19.9705 3.37784-19.9705 3.55909-19.9705 3.9875-19.9705 4.30056-19.9869 4.48182-20.0364 4.69602-20.0693 4.87727-20.1847 5.00909-20.3659 5.14091-20.5801 5.28922-20.8602 5.47048-21.2227 5.55286-21.4369 5.66818-21.6841 5.8-21.9477 6.14602-22.6892 6.49203-23.4307 6.85455-24.1887 6.98636-24.5347 7.13467-24.8642 7.31593-25.1773 7.44771-25.5233 7.66195-25.7869 7.97498-25.9682 8.23862-26.1 8.46931-26.0671 8.7-25.9023 8.73294-25.8529 8.78238-25.7869 8.83182-25.7045 8.86476-25.6057 8.89775-25.5233 8.89775-25.4409 8.89775-25.0455 8.78238-24.65 8.56818-24.2545 8.51874-24.1557 8.46931-24.0568 8.43636-23.925 8.30455-23.5625 8.17273-23.2 8.04091-22.8045 7.72784-22.096 7.41476-21.371 7.11818-20.6295 7.06874-20.4977 7.06874-20.3659 7.11818-20.2341 7.20056-20.1352 7.31593-20.1023 7.44771-20.1023 8.18922-20.0529 8.9142-20.0364 9.62273-20.0364 9.96874-20.0364 10.3477-20.0364 10.7432-20.0364 11.8801-20.0364 12.3415-19.8716 12.1273-19.575 11.946-19.3938 11.7648-19.2784 11.6-19.2455 11.4187-19.2455 11.2375-19.2455 11.0727-19.2455 10.9409-19.2455 10.8091-19.2455 10.6773-19.2455 9.52385-19.196 8.37047-19.1466 7.18407-19.1136 6.6568-19.1136 6.29433-18.8665 6.12952-18.3887 5.94831-17.9438 5.76706-17.4824 5.60225-17.0045 5.33861-16.4278 5.09147-15.8347 4.87727-15.225 4.61364-14.6977 4.36649-14.1375 4.15227-13.5773 3.52614-12.1602 2.96591-10.7597 2.43864-9.35909 2.07614-8.43636 1.79602-7.48069 1.58182-6.52502 1.13693-4.76195 1.8125-4.10284 3.625-4.54771 5.3716-4.9432 7.21706-6.19545 9.16138-8.30455 9.98524-8.83182 10.2159-8.58467 9.82043-7.57957Z" fill="#9F9797" fill-rule="nonzero" fill-opacity="1" transform="matrix(1 0 0 1.01437 841.879 528.927)"/><path d="M6.26138-6.59091C5.68467-5.93182 5.00909-5.30567 4.21818-4.74545 3.46023-4.21818 2.60341-3.8392 1.64773-3.625 0.675567-3.44375-0.0659091-3.52614-0.593182-3.88864-1.12045-4.23467-1.21932-4.97615-0.922727-6.12952-0.47784-7.31593 0.0988636-8.45286 0.856818-9.5568 0.988636-9.77104 1.21932-9.91931 1.58182-10.0182 1.79602-10.0511 1.99375-10.0182 2.175-9.88636 2.33977-9.75455 2.40568-9.58978 2.37273-9.42502 2.19148-9.02952 2.01023-8.63411 1.84545-8.23862 1.6642-7.87615 1.53239-7.64545 1.45-7.51364 1.0875-6.85455 0.856818-6.14602 0.725-5.40455 0.725-5.00909 1.26875-4.97615 2.37273-5.33861 3.50966-5.73411 4.61364-6.40965 5.66818-7.38182 6.72273-8.33749 7.21706-8.63411 7.18407-8.23862 7.13467-7.8432 6.8216-7.28294 6.26138-6.59091ZM3.16364-14.3023C3.24602-14.4341 3.36136-14.5165 3.49318-14.5659 3.625-14.5989 3.75682-14.6318 3.88864-14.6318 3.92159-14.5824 3.97102-14.5659 4.02045-14.5659 4.05341-14.5659 4.11932-14.5329 4.21818-14.5 4.5642-14.4506 4.74545-14.3682 4.74545-14.2364 4.7784-14.1045 4.74545-13.9398 4.61364-13.775 4.51476-13.5938 4.41593-13.4455 4.28407-13.3136 3.92159-12.9511 3.57557-12.5392 3.22955-12.0614 2.96591-11.6659 2.71875-11.3529 2.50455-11.1386 2.27386-10.908 2.12557-10.875 2.04318-11.0068 1.91136-11.1386 1.8125-11.2375 1.77955-11.3364 1.77955-11.4682 1.79602-11.6 1.84545-11.7318 1.97727-12.1602 2.12557-12.5557 2.30682-12.9182 2.52102-13.3136 2.73523-13.6761 2.96591-14.0386 3.04829-14.121 3.1142-14.2034 3.16364-14.3023Z" fill="#9F9797" fill-rule="nonzero" fill-opacity="1" transform="matrix(1 0 0 1.01437 850.163 528.927)"/><path d="M12.4568-7.8432C12.6216-7.61251 12.4074-7.21706 11.7977-6.6568 11.221-6.12952 10.6113-5.66818 9.95229-5.27273 9.29316-4.91022 8.51874-4.54771 7.64545-4.15227 7.06874-3.92159 6.45909-3.8392 5.8-3.88864 5.17385-3.97102 4.87727-4.36649 4.87727-5.07498 4.87727-5.76706 5.02558-6.47558 5.33861-7.18407 5.63524-7.87615 5.70113-8.23862 5.53636-8.23862 5.35511-8.2716 4.97615-8.12329 4.41593-7.77727 2.91648-6.80511 1.51591-5.68467 0.197727-4.41593-0.148295-3.97102-0.593182-3.72386-1.12045-3.69091-1.38409-3.69091-1.58182-3.77329-1.71364-3.95455-1.87841-4.11932-1.91136-4.31706-1.77955-4.54771-0.856818-6.21195 0.0659091-7.87615 0.988636-9.5568 1.20284-9.90286 1.53239-10.1171 1.97727-10.2159 2.14204-10.2489 2.30682-10.1829 2.43864-10.0182 2.60341-9.88636 2.70227-9.7216 2.70227-9.5568 2.65284-9.42502 2.57045-9.22727 2.43864-8.96364 2.3892-8.83182 2.33977-8.7 2.30682-8.56818 2.25739-8.46931 2.24091-8.38693 2.24091-8.30455 2.27386-8.20567 2.33977-8.17273 2.43864-8.17273 2.60341-8.25511 2.78466-8.33749 2.96591-8.43636 3.36136-8.7 3.72386-8.9142 4.08636-9.09545 4.38294-9.30965 4.71251-9.49091 5.07498-9.62273 5.47048-9.75455 5.86589-9.85342 6.26138-9.95229 6.87104-9.98524 7.31593-9.83693 7.57957-9.49091 7.8432-9.17784 7.85965-8.73294 7.64545-8.17273 7.4642-7.64545 7.25-7.11818 6.98636-6.59091 6.72273-6.09658 6.67329-5.73411 6.85455-5.47048 7.01931-5.23978 7.90909-5.53636 9.49091-6.32727L10.6773-7.05229C11.7648-7.74433 12.358-8.00797 12.4568-7.8432Z" fill="#9F9797" fill-rule="nonzero" fill-opacity="1" transform="matrix(1 0 0 1.01437 855.649 528.927)"/><path d="M8.96364-5.99775C8.33749-5.42104 7.61251-4.91022 6.78866-4.48182 5.99775-4.08636 5.33861-3.82273 4.81134-3.69091 4.28407-3.55909 3.72386-3.46023 3.16364-3.42727 2.24091-3.37784 1.38409-3.50966 0.593182-3.82273-0.675567-4.35-1.12045-5.33861-0.725-6.78866-0.3625-8.00797 0.346022-8.98013 1.45-9.68866 2.58693-10.3807 3.75682-10.7432 4.9432-10.7432 4.9432-10.7432 4.95965-10.7432 5.00909-10.7432 5.30567-10.7432 5.60225-10.7102 5.86589-10.6773 6.34377-10.496 6.62385-10.2159 6.72273-9.82043 6.85455-9.45796 6.78866-9.04602 6.52502-8.56818 5.81649-7.54658 4.89377-6.98636 3.75682-6.85455 2.99887-6.80511 2.25739-6.85455 1.51591-6.98636 1.38409-6.98636 1.26875-6.93693 1.18636-6.85455 1.0875-6.75567 1.02159-6.6568 0.988636-6.52502 0.757957-5.63524 1.05455-5.07498 1.84545-4.81134 2.76818-4.44887 3.72386-4.44887 4.74545-4.81134 5.93182-5.1574 7.05229-5.83294 8.10684-6.85455 9.16138-7.90909 9.77104-8.38693 9.95229-8.30455 10.1171-8.20567 10.1665-8.00797 10.0841-7.71134 9.95229-7.18407 9.57329-6.6074 8.96364-5.99775ZM2.24091-8.56818C2.19148-8.46931 2.14204-8.38693 2.10909-8.30455 2.10909-8.20567 2.14204-8.13978 2.24091-8.10684 2.58693-7.87615 2.98239-7.79377 3.42727-7.8432 3.85568-7.92558 4.21818-8.10684 4.48182-8.37047 4.7784-8.63411 4.91022-8.96364 4.87727-9.35909 4.87727-9.49091 4.81134-9.5568 4.67957-9.5568 4.58069-9.58978 4.48182-9.62273 4.35-9.62273 3.55909-9.49091 2.85057-9.1284 2.24091-8.56818Z" fill="#9F9797" fill-rule="nonzero" fill-opacity="1" transform="matrix(1 0 0 1.01437 866.526 528.927)"/><g><path d="M2.37273-6.32727C1.97727-6.0142 1.77955-5.8 1.77955-5.66818 1.77955-5.56931 1.87841-5.50342 2.10909-5.47048 2.37273-5.47048 2.65284-5.47048 2.96591-5.47048 3.04829-5.47048 3.13068-5.47048 3.22955-5.47048 4.18523-5.47048 5.14091-5.33861 6.06364-5.07498 6.36022-4.97615 6.6568-4.84433 6.92043-4.67957 6.95342-4.63013 6.98636-4.5642 6.98636-4.48182 7.01931-4.43238 7.01931-4.38294 6.98636-4.35 6.98636-4.30056 6.95342-4.25113 6.92043-4.21818 6.87104-4.16875 6.8216-4.15227 6.78866-4.15227 6.6074-4.10284 6.42615-4.08636 6.26138-4.08636 4.28407-4.35 2.32329-4.44887 0.395455-4.41593 0.0329545-4.41593-0.329545-4.41593-0.725-4.41593-0.856818-4.41593-0.988636-4.41593-1.12045-4.41593-1.38409-4.36649-1.61477-4.36649-1.84545-4.41593-2.10909-4.44887-2.25739-4.63013-2.30682-4.9432-2.33977-5.1574-2.27386-5.30567-2.10909-5.40455-1.97727-5.53636-1.79602-5.61874-1.58182-5.66818-1.40057-5.75056-1.25227-5.83294-1.12045-5.93182 0.543749-6.85455 2.12557-7.85965 3.625-8.96364 4.23467-9.39203 4.7784-9.90286 5.27273-10.4796 5.40455-10.6443 5.42104-10.8091 5.33861-10.9409 5.23978-11.1057 5.09147-11.2045 4.87727-11.2045 4.16875-11.2869 3.49318-11.2375 2.83409-11.0727 2.78466-11.0727 2.76818-11.0727 2.76818-11.0727 2.27386-10.9409 1.77955-10.8091 1.25227-10.6773 1.02159-10.6278 0.807385-10.7102 0.593182-10.9409 0.543749-11.0233 0.543749-11.1386 0.593182-11.2705 0.675567-11.4023 0.823861-11.5011 1.05455-11.6 2.5375-12.2591 4.10284-12.4733 5.73411-12.2591 6.12952-12.2097 6.49203-12.0943 6.85455-11.9295 7.51364-11.5671 7.66195-11.0892 7.31593-10.4796 6.92043-9.77104 6.39316-9.17784 5.73411-8.7 4.81134-8.04091 3.88864-7.38182 2.96591-6.72273 2.73523-6.59091 2.5375-6.45909 2.37273-6.32727Z" fill="#9F9797" fill-rule="nonzero" fill-opacity="1" transform="matrix(1 0 0 1.01437 875.03 528.927)"/></g></g><g><g><path d="M8.10684-3.03182C7.97498-2.01023 7.59602-1.21932 6.98636-0.659091 6.36022-0.131818 5.53636 0.131818 4.48182 0.131818 3.37784 0.131818 2.47159-0.263636 1.77955-1.05455 1.12045-1.87841 0.790909-2.96591 0.790909-4.28407L0.790909-5.20684C0.790909-6.08013 0.939203-6.85455 1.25227-7.51364 1.54887-8.20567 1.99375-8.73294 2.57045-9.09545 3.18011-9.44147 3.85568-9.62273 4.61364-9.62273 5.61874-9.62273 6.42615-9.32615 7.05229-8.76589 7.66195-8.23862 8.00797-7.4642 8.10684-6.45909L6.85455-6.45909C6.72273-7.20056 6.47558-7.74433 6.12952-8.10684 5.76706-8.45286 5.27273-8.63411 4.61364-8.63411 3.82273-8.63411 3.18011-8.32104 2.70227-7.71134 2.25739-7.13467 2.04318-6.29433 2.04318-5.20684L2.04318-4.28407C2.04318-3.22955 2.25739-2.3892 2.70227-1.77955 3.13068-1.20284 3.72386-0.922727 4.48182-0.922727 5.17385-0.922727 5.70113-1.07102 6.06364-1.38409 6.45909-1.68068 6.72273-2.24091 6.85455-3.03182Z" fill="#9F9797" fill-rule="nonzero" fill-opacity="1" transform="matrix(1 0 0 1.01437 703.128 575.842)"/></g><g><path d="M6.32727-2.50455 2.37273-2.50455 1.45 0 0.197727 0 3.82273-9.49091 4.9432-9.49091 8.56818 0 7.25 0ZM2.76818-3.49318 5.99775-3.49318 4.35-7.97498Z" fill="#9F9797" fill-rule="nonzero" fill-opacity="1" transform="matrix(1 0 0 1.01437 714.527 575.842)"/></g><g><path d="M4.61364-3.82273 2.37273-3.82273 2.37273 0 1.12045 0 1.12045-9.49091 4.21818-9.49091C5.30567-9.49091 6.14602-9.24377 6.72273-8.76589 7.28294-8.2716 7.57957-7.57957 7.57957-6.6568 7.57957-6.03069 7.41476-5.50342 7.11818-5.07498 6.80511-4.63013 6.36022-4.30056 5.8-4.08636L7.97498-0.0659091 7.97498 0 6.6568 0ZM2.37273-4.87727 4.28407-4.87727C4.89377-4.87727 5.3716-5.02558 5.73411-5.33861 6.12952-5.68467 6.32727-6.12952 6.32727-6.6568 6.32727-7.21706 6.14602-7.66195 5.8-7.97498 5.43749-8.32104 4.9432-8.50225 4.28407-8.50225L2.37273-8.50225Z" fill="#9F9797" fill-rule="nonzero" fill-opacity="1" transform="matrix(1 0 0 1.01437 725.946 575.842)"/></g><g><path d="M6.45909-4.41593 2.37273-4.41593 2.37273-1.05455 7.11818-1.05455 7.11818 0 1.12045 0 1.12045-9.49091 7.05229-9.49091 7.05229-8.50225 2.37273-8.50225 2.37273-5.40455 6.45909-5.40455Z" fill="#9F9797" fill-rule="nonzero" fill-opacity="1" transform="matrix(1 0 0 1.01437 736.874 575.842)"/></g><g><path d="M6.45909-4.41593 2.37273-4.41593 2.37273-1.05455 7.11818-1.05455 7.11818 0 1.12045 0 1.12045-9.49091 7.05229-9.49091 7.05229-8.50225 2.37273-8.50225 2.37273-5.40455 6.45909-5.40455Z" fill="#9F9797" fill-rule="nonzero" fill-opacity="1" transform="matrix(1 0 0 1.01437 747.168 575.842)"/></g><g><path d="M4.61364-3.82273 2.37273-3.82273 2.37273 0 1.12045 0 1.12045-9.49091 4.21818-9.49091C5.30567-9.49091 6.14602-9.24377 6.72273-8.76589 7.28294-8.2716 7.57957-7.57957 7.57957-6.6568 7.57957-6.03069 7.41476-5.50342 7.11818-5.07498 6.80511-4.63013 6.36022-4.30056 5.8-4.08636L7.97498-0.0659091 7.97498 0 6.6568 0ZM2.37273-4.87727 4.28407-4.87727C4.89377-4.87727 5.3716-5.02558 5.73411-5.33861 6.12952-5.68467 6.32727-6.12952 6.32727-6.6568 6.32727-7.21706 6.14602-7.66195 5.8-7.97498 5.43749-8.32104 4.9432-8.50225 4.28407-8.50225L2.37273-8.50225Z" fill="#9F9797" fill-rule="nonzero" fill-opacity="1" transform="matrix(1 0 0 1.01437 757.461 575.842)"/></g><g><path d="M6.32727-2.50455 2.37273-2.50455 1.45 0 0.197727 0 3.82273-9.49091 4.9432-9.49091 8.56818 0 7.25 0ZM2.76818-3.49318 5.99775-3.49318 4.35-7.97498Z" fill="#9F9797" fill-rule="nonzero" fill-opacity="1" transform="matrix(1 0 0 1.01437 774.386 575.842)"/></g><g><path d="M1.12045 0 1.12045-9.49091 3.75682-9.49091C4.58069-9.49091 5.30567-9.30965 5.93182-8.96364 6.59091-8.60113 7.08524-8.07385 7.44771-7.38182 7.79377-6.72273 7.97498-5.94831 7.97498-5.07498L7.97498-4.48182C7.97498-3.55909 7.79377-2.76818 7.44771-2.10909 7.08524-1.45 6.59091-0.922727 5.93182-0.527273 5.30567-0.164773 4.58069 0 3.75682 0ZM2.37273-8.50225 2.37273-1.05455 3.69091-1.05455C4.64658-1.05455 5.40455-1.33466 5.93182-1.91136 6.45909-2.52102 6.72273-3.37784 6.72273-4.48182L6.72273-5.07498C6.72273-6.12952 6.45909-6.93693 5.93182-7.51364 5.43749-8.12329 4.74545-8.45286 3.82273-8.50225Z" fill="#9F9797" fill-rule="nonzero" fill-opacity="1" transform="matrix(1 0 0 1.01437 785.805 575.842)"/></g><g><path d="M4.28407-1.64773 6.98636-9.49091 8.37047-9.49091 4.81134 0 3.69091 0 0.197727-9.49091 1.51591-9.49091Z" fill="#9F9797" fill-rule="nonzero" fill-opacity="1" transform="matrix(1 0 0 1.01437 797.27 575.842)"/></g><g><path d="M2.43864 0 1.18636 0 1.18636-9.49091 2.43864-9.49091Z" fill="#9F9797" fill-rule="nonzero" fill-opacity="1" transform="matrix(1 0 0 1.01437 808.472 575.842)"/></g><g><path d="M3.88864-4.21818C2.83409-4.51476 2.04318-4.89377 1.51591-5.33861 1.02159-5.81649 0.790909-6.39316 0.790909-7.05229 0.790909-7.79377 1.0875-8.40342 1.71364-8.89775 2.32329-9.37558 3.1142-9.62273 4.08636-9.62273 4.69602-9.62273 5.27273-9.49091 5.8-9.22727 6.32727-8.99658 6.72273-8.66706 6.98636-8.23862 7.28294-7.79377 7.44771-7.31593 7.44771-6.78866L6.12952-6.78866C6.12952-7.34887 5.94831-7.79377 5.60225-8.10684 5.23978-8.45286 4.74545-8.63411 4.08636-8.63411 3.42727-8.63411 2.91648-8.46931 2.57045-8.17273 2.25739-7.90909 2.10909-7.53013 2.10909-7.05229 2.10909-6.6568 2.25739-6.32727 2.57045-6.06364 2.91648-5.8 3.49318-5.55286 4.28407-5.33861 5.07498-5.10796 5.68467-4.87727 6.12952-4.61364 6.55796-4.35 6.88749-4.03693 7.11818-3.69091 7.33238-3.32841 7.44771-2.91648 7.44771-2.43864 7.44771-1.64773 7.13467-1.00511 6.52502-0.527273 5.89887-0.0823862 5.10796 0.131818 4.15227 0.131818 3.49318 0.131818 2.86705 0.0164773 2.30682-0.197727 1.73011-0.461364 1.28523-0.807385 0.988636-1.25227 0.675567-1.68068 0.527273-2.19148 0.527273-2.76818L1.77955-2.76818C1.77955-2.19148 1.97727-1.73011 2.37273-1.38409 2.80113-1.07102 3.39432-0.922727 4.15227-0.922727 4.81134-0.922727 5.30567-1.05455 5.66818-1.31818 6.0142-1.58182 6.19545-1.92784 6.19545-2.37273 6.19545-2.85057 6.0142-3.22955 5.66818-3.49318 5.35511-3.75682 4.76195-3.9875 3.88864-4.21818Z" fill="#9F9797" fill-rule="nonzero" fill-opacity="1" transform="matrix(1 0 0 1.01437 814.795 575.842)"/></g><g><path d="M8.43636-4.48182C8.43636-3.50966 8.25511-2.66932 7.90909-1.97727 7.59602-1.31818 7.15113-0.790909 6.59091-0.395455 6.0142-0.0329545 5.35511 0.131818 4.61364 0.131818 3.85568 0.131818 3.18011-0.0329545 2.57045-0.395455 1.99375-0.790909 1.54887-1.31818 1.25227-1.97727 0.939203-2.66932 0.790909-3.46023 0.790909-4.35L0.790909-5.07498C0.790909-5.94831 0.939203-6.73922 1.25227-7.44771 1.54887-8.13978 1.99375-8.66706 2.57045-9.02952 3.18011-9.42502 3.85568-9.62273 4.61364-9.62273 5.35511-9.62273 6.0142-9.44147 6.59091-9.09545 7.15113-8.73294 7.59602-8.20567 7.90909-7.51364 8.25511-6.80511 8.43636-5.99775 8.43636-5.07498ZM7.18407-5.07498C7.18407-6.16251 6.93693-7.01931 6.45909-7.64545 6.0142-8.25511 5.40455-8.56818 4.61364-8.56818 3.82273-8.56818 3.18011-8.25511 2.70227-7.64545 2.25739-7.01931 2.04318-6.19545 2.04318-5.14091L2.04318-4.48182C2.04318-3.37784 2.25739-2.50455 2.70227-1.84545 3.18011-1.21932 3.82273-0.922727 4.61364-0.922727 5.40455-0.922727 6.0142-1.20284 6.45909-1.77955 6.93693-2.3892 7.18407-3.24602 7.18407-4.35Z" fill="#9F9797" fill-rule="nonzero" fill-opacity="1" transform="matrix(1 0 0 1.01437 825.423 575.842)"/></g><g><path d="M4.61364-3.82273 2.37273-3.82273 2.37273 0 1.12045 0 1.12045-9.49091 4.21818-9.49091C5.30567-9.49091 6.14602-9.24377 6.72273-8.76589 7.28294-8.2716 7.57957-7.57957 7.57957-6.6568 7.57957-6.03069 7.41476-5.50342 7.11818-5.07498 6.80511-4.63013 6.36022-4.30056 5.8-4.08636L7.97498-0.0659091 7.97498 0 6.6568 0ZM2.37273-4.87727 4.28407-4.87727C4.89377-4.87727 5.3716-5.02558 5.73411-5.33861 6.12952-5.68467 6.32727-6.12952 6.32727-6.6568 6.32727-7.21706 6.14602-7.66195 5.8-7.97498 5.43749-8.32104 4.9432-8.50225 4.28407-8.50225L2.37273-8.50225Z" fill="#9F9797" fill-rule="nonzero" fill-opacity="1" transform="matrix(1 0 0 1.01437 837.313 575.842)"/></g></g><g clip-path="url(#clip0)"><path d="M261.626 224.091C247.077 224.981 246.368 225.689 245.478 240.239 244.605 225.689 243.897 224.981 229.347 224.091 243.897 223.201 244.605 222.493 245.478 207.943 246.368 222.493 247.077 223.201 261.626 224.091Z" fill="#D4AF37" fill-rule="nonzero" fill-opacity="1" transform="matrix(1 0 0 1.01437 612 344)"/></g></g></g></svg>